/* XPM */
static char * bitcoin16_xpm[] = {
"16 16 98 2",
"  	c None",
". 	c #FFFF00",
"+ 	c #D7D728",
"@ 	c #A8A821",
"# 	c #94933A",
"$ 	c #A6A527",
"% 	c #CFCE25",
"& 	c #F8F817",
"* 	c #C6C523",
"= 	c #040200",
"- 	c #040201",
"; 	c #040203",
"> 	c #434215",
", 	c #D1D16C",
"' 	c #FCFC0E",
") 	c #FFFE0D",
"! 	c #AAA92B",
"~ 	c #B9B814",
"{ 	c #030200",
"] 	c #363535",
"^ 	c #5E5E5E",
"/ 	c #040202",
"( 	c #3E3E3E",
"_ 	c #939157",
": 	c #A6A531",
"< 	c #000000",
"[ 	c #F9F813",
"} 	c #979672",
"| 	c #AAAAAA",
"1 	c #D0D0D0",
"2 	c #6F6F6F",
"3 	c #545454",
"4 	c #030201",
"5 	c #5A5A59",
"6 	c #FFFF07",
"7 	c #D3D2A0",
"8 	c #A3A3A3",
"9 	c #8B8B8B",
"0 	c #7B7A7B",
"a 	c #999999",
"b 	c #969595",
"c 	c #9B9B9B",
"d 	c #050203",
"e 	c #030102",
"f 	c #FBFA13",
"g 	c #ACA958",
"h 	c #555555",
"i 	c #3B3B3B",
"j 	c #797879",
"k 	c #AEADAD",
"l 	c #727272",
"m 	c #909090",
"n 	c #4F4F4F",
"o 	c #D7D6A3",
"p 	c #DFDFDF",
"q 	c #BCBBBC",
"r 	c #D8D8D8",
"s 	c #FCFCFC",
"t 	c #D9D9D9",
"u 	c #C3C3C3",
"v 	c #737373",
"w 	c #EBEAC7",
"x 	c #E9E9E9",
"y 	c #FFFFFF",
"z 	c #F5F5F5",
"A 	c #7F7F7F",
"B 	c #C9C888",
"C 	c #626262",
"D 	c #A7A7A7",
"E 	c #ECECEC",
"F 	c #030303",
"G 	c #C4C24B",
"H 	c #B5B5B5",
"I 	c #D7D7D7",
"J 	c #BFBFBF",
"K 	c #E4E4E4",
"L 	c #BBBBBB",
"M 	c #2D2D2D",
"N 	c #FFFF0A",
"O 	c #AAAA36",
"P 	c #B1B1B1",
"Q 	c #B9B9B9",
"R 	c #848484",
"S 	c #949494",
"T 	c #1C1C1C",
"U 	c #B3B3B3",
"V 	c #ACACAC",
"W 	c #FFFF10",
"X 	c #ADAC21",
"Y 	c #070707",
"Z 	c #020202",
"` 	c #414141",
" .	c #656565",
"..	c #353535",
"+.	c #6C6C6C",
"@.	c #ADAC1A",
"#.	c #010101",
"$.	c #1B1B1B",
"            . . . .             ",
"        + @ # $ % & . .         ",
"    . * = - ; ; ; > , ' ) !     ",
"    . ~ { ] ^ ; ; / ( _ : <     ",
"  . . [ } | 1 2 3 ; ; 4 5 < <   ",
"  . . 6 7 8 9 0 a b c d e < <   ",
". . . f g h i j k l m n < < < < ",
". . . . o p q r s t u v < < < < ",
". . . . w r x y y y z A < < < < ",
". . . . B C D p y s E F < < < < ",
"  . . . G H I J y K L M < < <   ",
"  . . N O P Q R S T U V < < <   ",
"    W X Y Y Z Z `  ...+.< <     ",
"    @.< < #.Z #.< $.< < < <     ",
"        < #.< < < < < <         ",
"            < < < <             "};
