/* XPM */
static char * bitcoin32_xpm[] = {
"32 32 242 2",
"  	c None",
". 	c #FFFF00",
"+ 	c #FFFF01",
"@ 	c #FEFF01",
"# 	c #FEFE0E",
"$ 	c #F0EF2C",
"% 	c #D6D531",
"& 	c #C7C648",
"* 	c #C8C741",
"= 	c #D4D43B",
"- 	c #EBEB2E",
"; 	c #FDFD1A",
"> 	c #FEFE02",
", 	c #FEFE16",
"' 	c #D0CF43",
") 	c #787527",
"! 	c #130F04",
"~ 	c #050305",
"{ 	c #050203",
"] 	c #040302",
"^ 	c #040201",
"/ 	c #050102",
"( 	c #595522",
"_ 	c #A6A536",
": 	c #E3E232",
"< 	c #FEFE0F",
"[ 	c #FEFE10",
"} 	c #AEAA35",
"| 	c #060201",
"1 	c #030200",
"2 	c #040303",
"3 	c #040203",
"4 	c #0D0704",
"5 	c #828127",
"6 	c #DCDC43",
"7 	c #FEFE1D",
"8 	c #FBFA2D",
"9 	c #F2F234",
"0 	c #161306",
"a 	c #302F2F",
"b 	c #999898",
"c 	c #BDBB7B",
"d 	c #F4F328",
"e 	c #FBFB1F",
"f 	c #9D9C37",
"g 	c #000001",
"h 	c #EAE935",
"i 	c #040101",
"j 	c #040202",
"k 	c #030201",
"l 	c #787878",
"m 	c #9C9A89",
"n 	c #E1DE48",
"o 	c #FCFB1C",
"p 	c #9D9C34",
"q 	c #000000",
"r 	c #FDFC08",
"s 	c #75700E",
"t 	c #636263",
"u 	c #ADADAD",
"v 	c #3B3B3B",
"w 	c #020201",
"x 	c #57534E",
"y 	c #949368",
"z 	c #E2E029",
"A 	c #2F270A",
"B 	c #343333",
"C 	c #BCBCBC",
"D 	c #F3F3F3",
"E 	c #AAAAAA",
"F 	c #030202",
"G 	c #686867",
"H 	c #666666",
"I 	c #FEFE04",
"J 	c #C8C63F",
"K 	c #C6C7C4",
"L 	c #B6B5B5",
"M 	c #D0D0D0",
"N 	c #E5E5E5",
"O 	c #C1C1C1",
"P 	c #A7A7A7",
"Q 	c #818080",
"R 	c #5D5C5C",
"S 	c #929292",
"T 	c #121011",
"U 	c #030203",
"V 	c #6B6B6B",
"W 	c #F3F172",
"X 	c #DEDEDC",
"Y 	c #B8B8B7",
"Z 	c #B6B6B6",
"` 	c #AEAEAE",
" .	c #B5B5B5",
"..	c #ACACAC",
"+.	c #ABAAAB",
"@.	c #CAC8C9",
"#.	c #DCDBDC",
"$.	c #C4C2C3",
"%.	c #D8D8D8",
"&.	c #C5C5C5",
"*.	c #939393",
"=.	c #FEFE19",
"-.	c #D4D387",
";.	c #8C8C8A",
">.	c #656564",
",.	c #6C6C6B",
"'.	c #757575",
").	c #696969",
"!.	c #474747",
"~.	c #131212",
"{.	c #030102",
"].	c #1A1A1A",
"^.	c #747474",
"/.	c #7D7D7D",
"(.	c #060203",
"_.	c #010000",
":.	c #ECE925",
"<.	c #C5C04F",
"[.	c #2A281E",
"}.	c #020202",
"|.	c #010001",
"1.	c #201F20",
"2.	c #535252",
"3.	c #6A6969",
"4.	c #575656",
"5.	c #343232",
"6.	c #3E3D3D",
"7.	c #515151",
"8.	c #8B8B8B",
"9.	c #3A3A3A",
"0.	c #2B2A2A",
"a.	c #E1DE43",
"b.	c #908F8E",
"c.	c #A7A6A7",
"d.	c #676767",
"e.	c #383737",
"f.	c #B2B1B1",
"g.	c #6E6D6E",
"h.	c #D7D6D7",
"i.	c #F8F8F8",
"j.	c #CFCFCF",
"k.	c #2C2C2C",
"l.	c #BDBDBD",
"m.	c #A9A9A9",
"n.	c #959595",
"o.	c #F2F06B",
"p.	c #80807F",
"q.	c #787777",
"r.	c #FBFBFB",
"s.	c #B3B3B3",
"t.	c #8C8B8C",
"u.	c #C2C1C1",
"v.	c #F4F4F4",
"w.	c #FFFFFF",
"x.	c #EBEBEB",
"y.	c #5B5B5B",
"z.	c #555555",
"A.	c #B0B0B0",
"B.	c #999999",
"C.	c #010101",
"D.	c #E7E490",
"E.	c #F4F4F3",
"F.	c #EAEAEA",
"G.	c #F6F6F6",
"H.	c #D5D5D5",
"I.	c #FDFDFD",
"J.	c #FCFCFC",
"K.	c #E1E1E1",
"L.	c #B2B2B2",
"M.	c #F3EFAE",
"N.	c #FFFFFE",
"O.	c #F9F9F9",
"P.	c #FEFEFE",
"Q.	c #E2E2E2",
"R.	c #F5F5F5",
"S.	c #C4C4C4",
"T.	c #F2EFA6",
"U.	c #B9B9B8",
"V.	c #9E9E9E",
"W.	c #E4E4E4",
"X.	c #F7F7F7",
"Y.	c #969696",
"Z.	c #EBEB78",
"`.	c #BFBFBF",
" +	c #8F8F8F",
".+	c #E9E9E9",
"++	c #292929",
"@+	c #E7E45F",
"#+	c #848585",
"$+	c #131313",
"%+	c #222222",
"&+	c #616161",
"*+	c #919191",
"=+	c #BEBEBE",
"-+	c #E7E52A",
";+	c #454545",
">+	c #A4A4A4",
",+	c #C3C3C3",
"'+	c #A8A8A8",
")+	c #626262",
"!+	c #E7E7E7",
"~+	c #FEFE18",
"{+	c #A7A485",
"]+	c #BBBBBA",
"^+	c #E0E0E0",
"/+	c #B1B1B1",
"(+	c #EDEDED",
"_+	c #8A8A8A",
":+	c #DEDEDE",
"<+	c #FCFC21",
"[+	c #9B9A67",
"}+	c #E6E6E6",
"|+	c #B8B8B8",
"1+	c #AFAFAF",
"2+	c #A5A5A5",
"3+	c #444444",
"4+	c #F0F0F0",
"5+	c #FDFD1B",
"6+	c #A5A42F",
"7+	c #232324",
"8+	c #5F5F5F",
"9+	c #040404",
"0+	c #393939",
"a+	c #141414",
"b+	c #030303",
"c+	c #303030",
"d+	c #EEEEEE",
"e+	c #A3A3A3",
"f+	c #FDFC16",
"g+	c #A5A333",
"h+	c #252525",
"i+	c #1B1B1B",
"j+	c #868686",
"k+	c #373737",
"l+	c #FDFD21",
"m+	c #505050",
"n+	c #797979",
"o+	c #424242",
"p+	c #FCFC16",
"q+	c #A6A42A",
"r+	c #242424",
"s+	c #3D3D3D",
"                            . . . .                             ",
"                    . . + + . . . . . . . .                     ",
"                @ # $ % & * = - ; > . . . . . .                 ",
"              , ' ) ! ~ { ] ^ / ( _ : < . . . . .               ",
"          . [ } | 1 1 2 3 3 3 3 3 3 4 5 6 7 . . . . 8           ",
"        . . 9 0 1 1 1 3 3 3 3 3 3 3 { a b c d + . e f g         ",
"        . . h i 1 1 1 j 3 3 3 3 3 3 3 ^ k l m n o p g q         ",
"      . . . r s 1 1 1 t u v 3 3 3 3 3 3 3 3 w x y g q q q       ",
"    . . . . . z A k B C D E 3 3 3 3 3 3 3 3 k F G H q q q q     ",
"    . . . . . I J K L M N O P Q R S T 3 U U F k F V q q q q     ",
"  . . . . . . . W X Y Z `  ...+.@.#.$.%.&.*.3 3 3 F q q q q q   ",
"  . . . . . . =.-.;.>.,.'.).!.~.{.{.{.].^./.(.3 U _.q q q q q   ",
"  . . . . . . :.<.[.}.|.1.2.3.4.5.6.}.7.8.9.0.q q q q q q q q   ",
"  . . . . . . . a.b.{.c.d.e.f.g.h.i.j.k.l.m.n.q q q q q q q q   ",
". . . . . . . . o.p.q.r.s.k.t.u.v.w.x.y.z.A.B.C.q q q q q q q q ",
". . . . . . . + D.E.F.w.G.H.I.J.I.w.w.v.r.K.L.C.q q q q q q q q ",
". . . . . . . . M.N.w.w.O.P.w.w.w.w.w.w.Q.R.S.q q q q q q q q q ",
". . . . . . . . T.U.L.V.O W.w.w.w.w.w.w.X.P.Y.q q q q q q q q q ",
"  . . . . . . . Z.`.*. +M .+.+w.w.w.w.w.w.v.++q q q q q q q q   ",
"  . . . . . . . @+#+$+}.%+&+*+i.w.w.w.R.v.=+q q q q q q q q q   ",
"  . . . . . . . -+;+>+,+j.'+)+!+w.w.w.P.&.*.q q q q q q q q q   ",
"  . . . . . . . ~+{+]+B.^+w.^+/+P.w.(+_+*.:+z.q q q q q q q q   ",
"    . . . . . . <+[+}+}+w.D |+1+K.2+3+}.y.4+1+q q q q q q q     ",
"    . . . . . 5+6+7+8+9+0+a+}.}.b+}.}.}.c+Q.d+e+q q q q q q     ",
"      . . . f+g+q h+i+}.}.}.}.}.}.;+j+k+}.H ,+0+q q q q q       ",
"        . l+6+g C.C.C.}.}.}.}.}.}.y.m+n+9+o+}.q q q q q         ",
"        p+q+q q C.q C.}.}.}.}.C.q q r+s+q q q q q q q q         ",
"          g q q q q C.}.}.}.C.q q q q q q q q q q q q           ",
"              q q q C.}.C.q q q q q q q q q q q q               ",
"                q q q q q q q q q q q q q q q q                 ",
"                    q q q q q q q q q q q q                     ",
"                            q q q q                             "};
