/* XPM */
static char * bitcoin64_xpm[] = {
"64 64 575 2",
"  	c None",
". 	c #FFFF00",
"+ 	c #FFFF01",
"@ 	c #FEFF01",
"# 	c #FFFE01",
"$ 	c #FEFE01",
"% 	c #FFFF02",
"& 	c #FEFE03",
"* 	c #FDFE06",
"= 	c #FDFC23",
"- 	c #FDFC4F",
"; 	c #FBFD41",
"> 	c #FCFC3A",
", 	c #FDFC3E",
"' 	c #FDFD32",
") 	c #FDFD11",
"! 	c #FDFE04",
"~ 	c #FEFE02",
"{ 	c #FEFD0C",
"] 	c #FDFC1F",
"^ 	c #EEEC36",
"/ 	c #D2CE48",
"( 	c #AFAE3F",
"_ 	c #949140",
": 	c #79754F",
"< 	c #76734B",
"[ 	c #76744A",
"} 	c #7C784B",
"| 	c #938E4C",
"1 	c #A9A646",
"2 	c #C8C646",
"3 	c #E4E23D",
"4 	c #F8F830",
"5 	c #FDFD1C",
"6 	c #FDFD09",
"7 	c #FEFF02",
"8 	c #FDFD22",
"9 	c #F2F244",
"0 	c #C3BF45",
"a 	c #7F7A27",
"b 	c #322D09",
"c 	c #0B0506",
"d 	c #050306",
"e 	c #050307",
"f 	c #060305",
"g 	c #040202",
"h 	c #050203",
"i 	c #080303",
"j 	c #181206",
"k 	c #575023",
"l 	c #96923A",
"m 	c #C9C747",
"n 	c #F2F14C",
"o 	c #FDFC25",
"p 	c #FEFE08",
"q 	c #FEFE04",
"r 	c #FAFB33",
"s 	c #C4C162",
"t 	c #535028",
"u 	c #080407",
"v 	c #020203",
"w 	c #020202",
"x 	c #030302",
"y 	c #030303",
"z 	c #050304",
"A 	c #040302",
"B 	c #040301",
"C 	c #030200",
"D 	c #030100",
"E 	c #020100",
"F 	c #020102",
"G 	c #020307",
"H 	c #070306",
"I 	c #484519",
"J 	c #9E9C3C",
"K 	c #E2DF48",
"L 	c #FBFC25",
"M 	c #FFFE04",
"N 	c #F8F642",
"O 	c #9E9738",
"P 	c #150C03",
"Q 	c #040201",
"R 	c #050303",
"S 	c #040203",
"T 	c #040204",
"U 	c #030103",
"V 	c #262007",
"W 	c #848225",
"X 	c #D4D344",
"Y 	c #FAFA40",
"Z 	c #FDFD12",
"` 	c #FDFC26",
" .	c #AAA63C",
"..	c #0C0505",
"+.	c #020200",
"@.	c #040200",
"#.	c #040102",
"$.	c #060106",
"%.	c #030205",
"&.	c #141109",
"*.	c #7E7A3E",
"=.	c #DCDB60",
"-.	c #FBFD3D",
";.	c #FEFE06",
">.	c #F2F250",
",.	c #F2F13C",
"'.	c #3A3615",
").	c #060202",
"!.	c #050102",
"~.	c #616061",
"{.	c #B1AEAE",
"].	c #6C6B67",
"^.	c #A3A246",
"/.	c #F1F038",
"(.	c #FEFE05",
"_.	c #F3F23E",
":.	c #828048",
"<.	c #D8D756",
"[.	c #080603",
"}.	c #030201",
"|.	c #050302",
"1.	c #616060",
"2.	c #C5C6C6",
"3.	c #C6C5C6",
"4.	c #837A63",
"5.	c #D4CE48",
"6.	c #FCFB1D",
"7.	c #FEFD06",
"8.	c #F3F240",
"9.	c #838137",
"0.	c #020101",
"a.	c #000000",
"b.	c #CECC55",
"c.	c #040101",
"d.	c #0A0A09",
"e.	c #737473",
"f.	c #C7C8C7",
"g.	c #ADACAA",
"h.	c #A6A24F",
"i.	c #F3F141",
"j.	c #FEFE07",
"k.	c #F4F34E",
"l.	c #82822E",
"m.	c #010104",
"n.	c #D5D341",
"o.	c #090502",
"p.	c #030202",
"q.	c #030102",
"r.	c #0C0D0B",
"s.	c #6A6B6A",
"t.	c #AAA8A5",
"u.	c #9A9572",
"v.	c #E6DF37",
"w.	c #FDFC19",
"x.	c #F5F339",
"y.	c #848132",
"z.	c #010101",
"A.	c #F7F515",
"B.	c #635A10",
"C.	c #030101",
"D.	c #242323",
"E.	c #161516",
"F.	c #070706",
"G.	c #5C5A59",
"H.	c #8A8277",
"I.	c #CAC771",
"J.	c #858449",
"K.	c #000001",
"L.	c #C9C319",
"M.	c #0E0804",
"N.	c #201F1F",
"O.	c #BBB9BA",
"P.	c #EFEFEF",
"Q.	c #E3E3E3",
"R.	c #777777",
"S.	c #020201",
"T.	c #2B2928",
"U.	c #94958D",
"V.	c #444544",
"W.	c #FAF728",
"X.	c #878025",
"Y.	c #050106",
"Z.	c #0A0809",
"`.	c #7F7F7F",
" +	c #F2F2F2",
".+	c #FFFFFF",
"++	c #FEFEFE",
"@+	c #E1E1E1",
"#+	c #131213",
"$+	c #050206",
"%+	c #2D2D2C",
"&+	c #B3B2B1",
"*+	c #3E3E3D",
"=+	c #EDEA3D",
"-+	c #5E5316",
";+	c #040205",
">+	c #646162",
",+	c #B2B1B1",
"'+	c #B2B2B2",
")+	c #ECECEC",
"!+	c #E5E5E5",
"~+	c #E8E8E8",
"{+	c #171616",
"]+	c #050402",
"^+	c #4F4F4E",
"/+	c #B8B8B7",
"(+	c #181818",
"_+	c #FDFD0D",
":+	c #DEDA23",
"<+	c #403D20",
"[+	c #A6A7A2",
"}+	c #939391",
"|+	c #0C0B09",
"1+	c #ACA8A8",
"2+	c #AFAEAE",
"3+	c #ADADAD",
"4+	c #F3F3F3",
"5+	c #A7A7A7",
"6+	c #2B2A2A",
"7+	c #191718",
"8+	c #060506",
"9+	c #7B7B7B",
"0+	c #909090",
"a+	c #FFFE00",
"b+	c #C4C273",
"c+	c #E8E9E5",
"d+	c #E5E5E3",
"e+	c #D1D1CF",
"f+	c #FEFEFD",
"g+	c #F0F0F0",
"h+	c #FAFAFA",
"i+	c #EEEEEE",
"j+	c #EEEDEE",
"k+	c #E9E9E9",
"l+	c #D6D6D6",
"m+	c #BCBBBC",
"n+	c #A3A2A2",
"o+	c #858484",
"p+	c #767576",
"q+	c #BABABA",
"r+	c #D1D0D1",
"s+	c #302F30",
"t+	c #5D5C5C",
"u+	c #FDFE0D",
"v+	c #EDEC9F",
"w+	c #FBFCF8",
"x+	c #F3F3F1",
"y+	c #E6E6E5",
"z+	c #F7F7F7",
"A+	c #F4F4F4",
"B+	c #F5F5F5",
"C+	c #DEDEDE",
"D+	c #DFDFDF",
"E+	c #EAE8E9",
"F+	c #F8F6F7",
"G+	c #F3F2F2",
"H+	c #D7D7D7",
"I+	c #E4E3E4",
"J+	c #D1CFD0",
"K+	c #C1BFC0",
"L+	c #C8C7C7",
"M+	c #A9A8A8",
"N+	c #787878",
"O+	c #636363",
"P+	c #737373",
"Q+	c #040303",
"R+	c #FDFD18",
"S+	c #DED894",
"T+	c #D7D6D6",
"U+	c #A3A2A3",
"V+	c #727272",
"W+	c #4C4C4C",
"X+	c #2D2D2D",
"Y+	c #222222",
"Z+	c #1D1D1D",
"`+	c #232323",
" @	c #383838",
".@	c #3E3E3E",
"+@	c #4E4E4E",
"@@	c #6E6E6E",
"#@	c #464646",
"$@	c #888787",
"%@	c #8D8C8D",
"&@	c #D1D1D1",
"*@	c #BFBDBD",
"=@	c #B6B4B5",
"-@	c #E8E7E7",
";@	c #F8F8F8",
">@	c #FCFCFC",
",@	c #F6F6F6",
"'@	c #4F4F4F",
")@	c #FBFB38",
"!@	c #949060",
"~@	c #3C3C3B",
"{@	c #2C2D2A",
"]@	c #030203",
"^@	c #050404",
"/@	c #131313",
"(@	c #424242",
"_@	c #7E7E7E",
":@	c #B9B9B9",
"<@	c #434343",
"[@	c #FFFE05",
"}@	c #FAFB35",
"|@	c #E5E489",
"1@	c #CCCDC6",
"2@	c #C4C4C3",
"3@	c #AFAFAA",
"4@	c #929291",
"5@	c #999999",
"6@	c #9E9E9E",
"7@	c #A0A0A0",
"8@	c #9D9D9D",
"9@	c #939393",
"0@	c #858585",
"a@	c #717171",
"b@	c #525252",
"c@	c #373636",
"d@	c #181616",
"e@	c #120F10",
"f@	c #0B090A",
"g@	c #040404",
"h@	c #151515",
"i@	c #060203",
"j@	c #FDFC11",
"k@	c #AEA12B",
"l@	c #948C21",
"m@	c #CAC583",
"n@	c #524F3C",
"o@	c #080808",
"p@	c #0F0F0F",
"q@	c #1C1B1B",
"r@	c #494848",
"s@	c #656565",
"t@	c #7A7979",
"u@	c #878686",
"v@	c #908F90",
"w@	c #8C8B8B",
"x@	c #524E4F",
"y@	c #514D4E",
"z@	c #363435",
"A@	c #7F7D7E",
"B@	c #070707",
"C@	c #333333",
"D@	c #010000",
"E@	c #FBF839",
"F@	c #FCFB23",
"G@	c #A49C3B",
"H@	c #0A0A07",
"I@	c #020001",
"J@	c #131212",
"K@	c #343333",
"L@	c #262626",
"M@	c #050505",
"N@	c #8E8E8E",
"O@	c #888888",
"P@	c #4B4B4B",
"Q@	c #575757",
"R@	c #A29B26",
"S@	c #575556",
"T@	c #2A2929",
"U@	c #444343",
"V@	c #080707",
"W@	c #3F3E3E",
"X@	c #8A8989",
"Y@	c #565555",
"Z@	c #070506",
"`@	c #A5A3A4",
" #	c #F6F5F6",
".#	c #EBEBEB",
"+#	c #D5D5D5",
"@#	c #8B8B8B",
"##	c #C8C8C8",
"$#	c #CBCBCB",
"%#	c #B6B6B6",
"&#	c #272727",
"*#	c #FEFD0B",
"=#	c #D5D07D",
"-#	c #E1E0DC",
";#	c #898888",
">#	c #C1C1C1",
",#	c #141414",
"'#	c #5E5D5D",
")#	c #CECDCE",
"!#	c #EAE9EA",
"~#	c #C1C0C1",
"{#	c #545454",
"]#	c #A9A9A9",
"^#	c #FFFEFE",
"/#	c #C4C4C4",
"(#	c #AEAEAE",
"_#	c #B0B0B0",
":#	c #242424",
"<#	c #9B9B9B",
"[#	c #A2A2A2",
"}#	c #FEFE0B",
"|#	c #EAE896",
"1#	c #22201C",
"2#	c #020002",
"3#	c #454444",
"4#	c #F0EFEF",
"5#	c #363636",
"6#	c #060405",
"7#	c #393839",
"8#	c #A6A5A5",
"9#	c #F1F1F1",
"0#	c #FDFDFD",
"a#	c #191919",
"b#	c #4D4D4D",
"c#	c #C3C3C3",
"d#	c #DEDA8C",
"e#	c #BFC0BC",
"f#	c #ABAAAB",
"g#	c #4E4C4D",
"h#	c #CFCECF",
"i#	c #E7E7E7",
"j#	c #2A2A2A",
"k#	c #252525",
"l#	c #545353",
"m#	c #B0AFB0",
"n#	c #BBBBBB",
"o#	c #9C9C9C",
"p#	c #B4B4B4",
"q#	c #D0D0D0",
"r#	c #868686",
"s#	c #949494",
"t#	c #0C0C0C",
"u#	c #FBFA25",
"v#	c #C7C3AA",
"w#	c #D4D4D4",
"x#	c #D8D8D8",
"y#	c #D0CFCF",
"z#	c #E2E2E2",
"A#	c #606060",
"B#	c #161616",
"C#	c #EFEB1E",
"D#	c #E4E2D7",
"E#	c #F9F9F9",
"F#	c #6B6B6B",
"G#	c #EFE820",
"H#	c #F9F8E9",
"I#	c #747474",
"J#	c #E7E024",
"K#	c #F8F6EB",
"L#	c #FFFFFE",
"M#	c #FBFBFB",
"N#	c #979797",
"O#	c #DADADA",
"P#	c #565656",
"Q#	c #E5E021",
"R#	c #F5F1E5",
"S#	c #EDEDEB",
"T#	c #CDCDCD",
"U#	c #B1B1B1",
"V#	c #C0C0C0",
"W#	c #F5F31B",
"X#	c #F6F4DA",
"Y#	c #AEADAD",
"Z#	c #828282",
"`#	c #0E0E0E",
" $	c #797979",
".$	c #FCFC0E",
"+$	c #F3F2C8",
"@$	c #575756",
"#$	c #E4E4E5",
"$$	c #CACACA",
"%$	c #0A0A0A",
"&$	c #666666",
"*$	c #B8B8B8",
"=$	c #DBDBDB",
"-$	c #FCFC15",
";$	c #B9B96E",
">$	c #91918F",
",$	c #C6C6C6",
"'$	c #1E1E1E",
")$	c #3C3C3C",
"!$	c #A8A8A8",
"~$	c #CCCCCC",
"{$	c #EAEAEA",
"]$	c #C0BB88",
"^$	c #DEDFDE",
"/$	c #747475",
"($	c #2C2C2C",
"_$	c #454545",
":$	c #ABABAB",
"<$	c #B3B3B3",
"[$	c #BCBCBC",
"}$	c #8F8F8F",
"|$	c #FFFE07",
"1$	c #DAD37A",
"2$	c #2F2F2E",
"3$	c #373737",
"4$	c #585858",
"5$	c #E6E6E6",
"6$	c #DCDCDC",
"7$	c #313131",
"8$	c #BAB236",
"9$	c #0A0708",
"0$	c #030304",
"a$	c #848484",
"b$	c #7D7D7D",
"c$	c #DDDB3F",
"d$	c #161306",
"e$	c #898989",
"f$	c #C7C7C7",
"g$	c #535353",
"h$	c #ACACAC",
"i$	c #FBFA32",
"j$	c #786F28",
"k$	c #060606",
"l$	c #6D6D6D",
"m$	c #B5B5B5",
"n$	c #DDDDDD",
"o$	c #B7B7B7",
"p$	c #555555",
"q$	c #FEFE10",
"r$	c #B9B43C",
"s$	c #CBCBC8",
"t$	c #F5F5F4",
"u$	c #D2D2D2",
"v$	c #5D5D5D",
"w$	c #AFAFAF",
"x$	c #292929",
"y$	c #959595",
"z$	c #FDFD0C",
"A$	c #D4D262",
"B$	c #9F9F9C",
"C$	c #6F6F6F",
"D$	c #EDEDED",
"E$	c #090909",
"F$	c #BEBEBE",
"G$	c #FEFF03",
"H$	c #F7F645",
"I$	c #908E44",
"J$	c #1A1A1A",
"K$	c #BFBFBF",
"L$	c #444444",
"M$	c #FFFF03",
"N$	c #F7F72D",
"O$	c #939038",
"P$	c #414141",
"Q$	c #505050",
"R$	c #5E5E5E",
"S$	c #D9D9D9",
"T$	c #A4A4A4",
"U$	c #FFFE02",
"V$	c #F6F63C",
"W$	c #918F3C",
"X$	c #CFCFCF",
"Y$	c #757575",
"Z$	c #F7F646",
"`$	c #929032",
" %	c #111111",
".%	c #8A8A8A",
"+%	c #F7F632",
"@%	c #928F36",
"#%	c #838383",
"$%	c #3D3D3D",
"%%	c #F6F734",
"&%	c #949138",
"*%	c #404040",
"=%	c #8C8C8C",
"-%	c #121212",
";%	c #616161",
">%	c #939239",
",%	c #707070",
"'%	c #2F2F2F",
")%	c #686868",
"!%	c #5C5C5C",
"~%	c #F8F635",
"{%	c #92912C",
"]%	c #474747",
"^%	c #F7F52D",
"/%	c #959231",
"(%	c #050403",
"                                                                                                                                ",
"                                                  . . . . . . . . . . . . . .                                                   ",
"                                          . . . . . . . . . . . . . . . . . . . . . .                                           ",
"                                      + + . + @ # @ @ $ # + + . . . . . . . . . . . . . .                                       ",
"                                  . + % % & * = - ; > , ' ) ! ~ + . . . . . . . . . . . . . .                                   ",
"                              . @ ~ { ] ^ / ( _ : < [ } | 1 2 3 4 5 6 7 @ . . . . . . . . . . . .                               ",
"                            . # 8 9 0 a b c d e f g g h g g i j k l m n o p % + . . . . . . . . . .                             ",
"                        . . q r s t u v w x y z z A B B C C D E F G H I J K L * . . . . . . . . . . . .                         ",
"                      . . M N O P Q C B C C R z z S S S S S S S S S S T U V W X Y Z & . . . . . . . . . +                       ",
"                    . . . `  ...+.@.C C C C g S S S S S S S S S S S S g #.$.%.&.*.=.-.& @ . . . . . . + ;.>.                    ",
"                  . . . + ,.'.g C C C C C C g S S S S S S S S S S S S h ).!.h ~.{.].^./.Z + + . . . . (._.:.v                   ",
"                . . . . % <.[.}.C C C C C C g S S S S S S S S S S S S S h h A |.1.2.3.4.5.6.~ 7 . . 7.8.9.0.a.a.                ",
"              . . . . . % b.c.Q C C C C C C g S S S S S S S S S S S S S S S A C C d.e.f.g.h.i.;.+ j.k.l.m.a.a.a.a.              ",
"              . . . . . 7 n.o.@.C C C C C C p.S S S S S S S S S S S S S S S A B B }.q.r.s.t.u.v.w.x.y.z.a.a.a.a.a.              ",
"            . . . . . . + A.B.w C C C C C C C.q.D.E.F q.S S S S S S S S S S S A A S S R p.F.G.H.I.J.w K.a.a.a.a.a.a.            ",
"          . . . . . . . + (.L.M.}.C C C C C N.O.P.Q.R.q.S S S S S S S S S S S S S S S S q.+.S.T.U.V.a.a.a.a.a.a.a.a.a.          ",
"          . . . . . . . . . W.X.Y.}.C C }.Z.`. +.+++@+#+h S S S S S S S S S S S S S S S q.C C $+%+&+*+a.a.a.a.a.a.a.a.          ",
"        . . . . . . . . . . ;.=+-+;+p.}.B >+,+'+)+!+~+{+h S S S S S S S S S S S S S S S q.C C C ]+^+/+(+a.a.a.a.a.a.a.a.        ",
"        . . . . . . . . . . % _+:+<+[+}+|+1+2+`.3+4+5+6+7+8+q.q.q.q.z Z.q.S S S S S S S q.C C C C }.9+0+a.a.a.a.a.a.a.a.        ",
"      . . . . . . . . . . . . a+w.b+c+d+e+~+f+g+)+h+i+j+k+l+m+n+o+p+q+r+s+S q.S p.w p.q.S g g g g S z t+F a.a.a.a.a.a.a.a.      ",
"      . . . . . . . . . . . . . u+v+w+x+y+4+z+4+@+A+B+g+C+D+r+E+F+G+H+I+J+K+L+M+N+O+P+Q+S S S S S S S #.a.a.a.a.a.a.a.a.a.      ",
"    . . . . . . . . . . . . . . R+S+T+U+V+W+X+Y+Z+`+ @.@+@@@#@~.$@%@&@I+*@=@-@;@>@>@,@'@y S S S S S S z.a.a.a.a.a.a.a.a.a.a.    ",
"    . . . . . . . . . . . . + @ )@!@~@{@S.S.S.y y y w w w w ]@S S S ^@/@S S E.(@_@:@@+<@h h S S S S F a.a.a.a.a.a.a.a.a.a.a.    ",
"    . . . . . . . . . . . . [@}@|@1@2@3@0+4@5@6@7@8@9@0@a@b@c@d@e@z f@S q.q.F w w g@h@p.i@i@h S S 0.a.a.a.a.a.a.a.a.a.a.a.a.    ",
"    . . . . . . . . . . . + j@k@l@m@n@v y o@p@q@6+r@s@t@u@v@w@x@y@z@A@B@w w w C@h@Y+y w p.p.D@a.a.a.a.a.a.a.a.a.a.a.a.a.a.a.    ",
"  . . . . . . . . . . . . + (.E@F@G@H@0.0.p.q.q.q.q.q.q.I@q.C.z.J@K@L@(+M@y w N@O@@+s@P@Q@p.a.a.a.a.a.a.a.a.a.a.a.a.a.a.a.a.a.  ",
"  . . . . . . . . . . . . . . + Z R@S@T@q.q. @U@V@q.q.W@X@Y@Z@q.`@ #B+.#+#@#w b@6@g+##$#%#&#a.a.a.a.a.a.a.a.a.a.a.a.a.a.a.a.a.  ",
"  . . . . . . . . . . . . . . . *#=#-#;#I@q.m+z+>#,#z.'#)#!#~#{#]#^#.+.+.+/#Z+w ]#(#_#:#<#[#z.a.a.a.a.a.a.a.a.a.a.a.a.a.a.a.a.  ",
"  . . . . . . . . . . . . . . . }#|#1#2#I@3#4#.+;@5#w q.6#7#8#9#9#0#.+.+++3+a#y L@/@##b#R.c#z.a.a.a.a.a.a.a.a.a.a.a.a.a.a.a.a.  ",
"  . . . . . . . . . . . . . . . ) d#e#f#g#h#++.+i#j#k#l#m#$#n#]#k+h+.+.+.+,@o#P@&#8@p#q#r#s#t#a.a.a.a.a.a.a.a.a.a.a.a.a.a.a.a.  ",
"  . . . . . . . . . . . . . . . u#v#++w#<#0#.+.+.+x#9+y#>@.+.+A+z+.+.+.+.+.+~+~+P.++z#l+k+A#B#a.a.a.a.a.a.a.a.a.a.a.a.a.a.a.a.  ",
"  . . . . . . . . . . . . . + + C#D#++++++.+.+.+.+.+>@i+E#.+.+.+.+.+.+.+.+.+.+.+.+++C+g+x#F#z.a.a.a.a.a.a.a.a.a.a.a.a.a.a.a.a.  ",
"  . . . . . . . . . . . . . . + G#H#.+.+.+.+.+.+.+.+.+.+.+.+.+.+.+.+.+.+.+.+.+.+.+Q.>@.+++I#a.a.a.a.a.a.a.a.a.a.a.a.a.a.a.a.a.  ",
"  . . . . . . . . . . . . . . + J#K#L#++.+.+.+.+.+i#M#.+.+.+.+.+.+.+.+.+.+.+.+.+++N#O#.+M#P#a.a.a.a.a.a.a.a.a.a.a.a.a.a.a.a.a.  ",
"  . . . . . . . . . . . . . + + Q#R#S#%#l+A+@+T#x#U#V#++.+.+.+.+.+.+.+.+.+.+.+.+0#E#h+.+!+B#a.a.a.a.a.a.a.a.a.a.a.a.a.a.a.a.a.  ",
"  . . . . . . . . . . . . . . . W#X#Y#Z#9+&#`#B@ $!+i+D+.+.+.+.+.+.+.+.+.+.+.+.+4+ +.+.+(#a.a.a.a.a.a.a.a.a.a.a.a.a.a.a.a.a.a.  ",
"  . . . . . . . . . . . . . . . .$+$@$#$$$%$&$*$=$M#.+H+.#.+.+.+.+.+.+.+.+.+.+.+.+.+.+E#Q@a.a.a.a.a.a.a.a.a.a.a.a.a.a.a.a.a.a.  ",
"  . . . . . . . . . . . . . + + -$;$>$B+,$'$)$_#'+!$+#9#~${$.+.+.+.+.+.+.+.+.+.+.+.+.++#o@a.a.a.a.a.a.a.a.a.a.a.a.a.a.a.a.a.a.  ",
"  . . . . . . . . . . . . . . + *#]$^$/$($w w o@_$g@ @:$<$[$M#.+.+.+.+.+.+.+.+z+.+.+0#}$a.a.a.a.a.a.a.a.a.a.a.a.a.a.a.a.a.a.a.  ",
"    . . . . . . . . . . . . . . |$1$2$v w y g@w w z.z.3$'@4$5$++.+.+.+.+.+.+.+6$&@0#5$7$a.a.a.a.a.a.a.a.a.a.a.a.a.a.a.a.a.a.    ",
"    . . . . . . . . . . . . . . j.8$9$0$a$$#H+T#%#5@+@g@z.4$~$+#.+.+.+.+.+.+.+.+E#5$b$'+z.a.a.a.a.a.a.a.a.a.a.a.a.a.a.a.a.a.    ",
"    . . . . . . . . . . . . . . q c$d$a$]#e$8@>#O#0#z+f$g$N#++;@.+.+.+.+.+.+.+h+h$'@5#%#,#a.a.a.a.a.a.a.a.a.a.a.a.a.a.a.a.a.    ",
"    . . . . . . . . . . . . . . 7 i$j$N@<#k$z.y l$M#.+.+4+m$##,$0#.+.+.+.+0#n$0+P#0@o$E#p$a.a.a.a.a.a.a.a.a.a.a.a.a.a.a.a.a.    ",
"      . . . . . . . . . . . . . + q$r$s$t$=$&@&@P..+.+.+.+u$v$c#.+.+.+.+M#w$,#x$U#3+[$h+y$a.a.a.a.a.a.a.a.a.a.a.a.a.a.a.a.      ",
"      . . . . . . . . . . . . . + z$A$B$++.+++.+.+.+.+.+++&@C$A+.+.+D$T#r#k$w y E$`+F$++o$k$a.a.a.a.a.a.a.a.a.a.a.a.a.a.a.      ",
"        . . . . . . . . . . . . G$H$I$)$,$##[#~+>@0#,@w#N@J$O+K$K$p#L$y w w w w y 5+>@.+z+5@k$a.a.a.a.a.a.a.a.a.a.a.a.a.        ",
"        . . . . . . . . . . + M$N$O$Q+w P$w w '$Q$4$ @o@z.w w w y y y w w w w w w R$S$.+.+E#T$E$a.a.a.a.a.a.a.a.a.a.a.a.        ",
"          . . . . . . . . . U$V$W$x a.W+]#z.w w w w w w w w w w w y y w w y w w w k$p#4+X$D$A+Y$a.a.a.a.a.a.a.a.a.a.a.          ",
"          . . . . . . . . & Z$`$}.a.a.#@3$z.w w w w w w w w w w w w w  %s#.%B@w w w .@I#i#i#I#w a.a.a.a.a.a.a.a.a.a.a.          ",
"            . . . . . + & +%@%0$a.z.z.o@J$w w w w w w w w w w w w y y #%P+b$@@w w w Z+s#K$$%a.a.a.a.a.a.a.a.a.a.a.a.            ",
"              . . . . q %%&%x a.a.z.z.z.z.w w w w w w w w w w w w y *%C$`+P+=%-%w y ;%4$M@z.a.a.a.a.a.a.a.a.a.a.a.              ",
"              . . . % H$>%B K.a.z.z.a.z.z.w w w w w w w w w w w w w ,%'%a.)%5+!%z.%$h@B#g@g@z.a.a.a.a.a.a.a.a.a.a.              ",
"                . ~ ~%{%A a.a.z.z.z.a.a.a.w w w w w w w w w w w z.a.w a.a.]%V+ %a.z.w w a.a.a.a.a.a.a.a.a.a.a.a.                ",
"                  ^%/%B a.a.a.a.a.a.a.a.a.z.w w w w w w w w z.a.a.a.a.z.z.z.z.a.a.a.a.a.a.a.a.a.a.a.a.a.a.a.a.                  ",
"                    (%a.a.a.a.a.a.a.a.a.a.z.w w w w w w z.z.a.a.a.a.z.z.a.a.a.a.a.a.a.a.a.a.a.a.a.a.a.a.a.a.                    ",
"                      a.a.a.a.a.a.a.a.a.a.z.w w w w z.z.a.a.a.a.z.a.a.a.a.a.a.a.a.a.a.a.a.a.a.a.a.a.a.a.a.                      ",
"                        a.a.a.a.a.a.a.a.a.z.w w z.z.a.a.a.a.a.a.a.a.a.a.a.a.a.a.a.a.a.a.a.a.a.a.a.a.a.a.                        ",
"                            a.a.a.a.a.a.a.z.z.z.a.a.a.a.a.a.a.a.a.a.a.a.a.a.a.a.a.a.a.a.a.a.a.a.a.a.                            ",
"                              a.a.a.a.a.a.a.a.a.a.a.a.a.a.a.a.a.a.a.a.a.a.a.a.a.a.a.a.a.a.a.a.a.a.                              ",
"                                  a.a.a.a.a.a.a.a.a.a.a.a.a.a.a.a.a.a.a.a.a.a.a.a.a.a.a.a.a.a.                                  ",
"                                      a.a.a.a.a.a.a.a.a.a.a.a.a.a.a.a.a.a.a.a.a.a.a.a.a.a.                                      ",
"                                          a.a.a.a.a.a.a.a.a.a.a.a.a.a.a.a.a.a.a.a.a.a.                                          ",
"                                                  a.a.a.a.a.a.a.a.a.a.a.a.a.a.                                                  ",
"                                                                                                                                "};
